<mxfile host="Electron" modified="2024-04-10T13:08:31.301Z" agent="Mozilla/5.0 (X11; Linux x86_64) AppleWebKit/537.36 (KHTML, like Gecko) draw.io/24.1.0 Chrome/120.0.6099.109 Electron/28.1.0 Safari/537.36" etag="T6-2GFXvrwEMG-4Fhx9U" version="24.1.0" type="device">
  <diagram name="Page-1" id="a7904f86-f2b4-8e86-fa97-74104820619b">
    <mxGraphModel dx="981" dy="599" grid="0" gridSize="8" guides="1" tooltips="1" connect="1" arrows="1" fold="1" page="0" pageScale="1" pageWidth="1100" pageHeight="850" background="none" math="0" shadow="0">
      <root>
        <mxCell id="0" />
        <mxCell id="1" parent="0" />
        <object label="recipes" id="kD5UxC7V2aShaHn57tZ6-2">
          <mxCell style="swimlane;fontStyle=0;childLayout=stackLayout;horizontal=1;startSize=32;horizontalStack=0;resizeParent=1;resizeParentMax=0;resizeLast=0;collapsible=1;marginBottom=0;whiteSpace=wrap;html=1;rounded=0;swimlaneLine=1;glass=0;shadow=0;" parent="1" vertex="1">
            <mxGeometry x="384" y="128" width="256" height="352" as="geometry">
              <mxRectangle x="384" y="128" width="80" height="32" as="alternateBounds" />
            </mxGeometry>
          </mxCell>
        </object>
        <mxCell id="kD5UxC7V2aShaHn57tZ6-3" value="id: &lt;span style=&quot;white-space: pre;&quot;&gt;&#x9;&lt;/span&gt;&lt;span style=&quot;white-space: pre;&quot;&gt;&#x9;&lt;/span&gt;&lt;span style=&quot;white-space: pre;&quot;&gt;&#x9;&lt;/span&gt;&lt;span style=&quot;white-space: pre;&quot;&gt;&#x9;&lt;/span&gt;int" style="text;strokeColor=none;fillColor=none;align=left;verticalAlign=middle;spacingLeft=4;spacingRight=4;overflow=hidden;points=[[0,0.5],[1,0.5]];portConstraint=eastwest;rotatable=0;whiteSpace=wrap;html=1;rounded=0;glass=0;shadow=0;" parent="kD5UxC7V2aShaHn57tZ6-2" vertex="1">
          <mxGeometry y="32" width="256" height="32" as="geometry" />
        </mxCell>
        <mxCell id="kD5UxC7V2aShaHn57tZ6-4" value="title: &lt;span style=&quot;white-space: pre;&quot;&gt;&#x9;&lt;/span&gt;&lt;span style=&quot;white-space: pre;&quot;&gt;&#x9;&lt;/span&gt;&lt;span style=&quot;white-space: pre;&quot;&gt;&#x9;&lt;/span&gt;String" style="text;strokeColor=none;fillColor=none;align=left;verticalAlign=middle;spacingLeft=4;spacingRight=4;overflow=hidden;points=[[0,0.5],[1,0.5]];portConstraint=eastwest;rotatable=0;whiteSpace=wrap;html=1;" parent="kD5UxC7V2aShaHn57tZ6-2" vertex="1">
          <mxGeometry y="64" width="256" height="32" as="geometry" />
        </mxCell>
        <mxCell id="kD5UxC7V2aShaHn57tZ6-5" value="ingredients: &lt;span style=&quot;white-space: pre;&quot;&gt;&#x9;&lt;/span&gt;&lt;span style=&quot;white-space: pre;&quot;&gt;&#x9;&lt;/span&gt;String (JSON list)" style="text;strokeColor=none;fillColor=none;align=left;verticalAlign=middle;spacingLeft=4;spacingRight=4;overflow=hidden;points=[[0,0.5],[1,0.5]];portConstraint=eastwest;rotatable=0;whiteSpace=wrap;html=1;" parent="kD5UxC7V2aShaHn57tZ6-2" vertex="1">
          <mxGeometry y="96" width="256" height="32" as="geometry" />
        </mxCell>
        <mxCell id="yoqGeydZir3_6ihq76J6-1" value="instructions: &lt;span style=&quot;white-space: pre;&quot;&gt;&#x9;&lt;/span&gt;&lt;span style=&quot;white-space: pre;&quot;&gt;&#x9;&lt;/span&gt;String (JSON list)" style="text;strokeColor=none;fillColor=none;align=left;verticalAlign=middle;spacingLeft=4;spacingRight=4;overflow=hidden;points=[[0,0.5],[1,0.5]];portConstraint=eastwest;rotatable=0;whiteSpace=wrap;html=1;" vertex="1" parent="kD5UxC7V2aShaHn57tZ6-2">
          <mxGeometry y="128" width="256" height="32" as="geometry" />
        </mxCell>
        <mxCell id="yoqGeydZir3_6ihq76J6-6" value="duration: &lt;span style=&quot;white-space: pre;&quot;&gt;&#x9;&lt;/span&gt;&lt;span style=&quot;white-space: pre;&quot;&gt;&#x9;&lt;/span&gt;&lt;span style=&quot;white-space: pre;&quot;&gt;&#x9;&lt;/span&gt;int (minutes)" style="text;strokeColor=none;fillColor=none;align=left;verticalAlign=middle;spacingLeft=4;spacingRight=4;overflow=hidden;points=[[0,0.5],[1,0.5]];portConstraint=eastwest;rotatable=0;whiteSpace=wrap;html=1;" vertex="1" parent="kD5UxC7V2aShaHn57tZ6-2">
          <mxGeometry y="160" width="256" height="32" as="geometry" />
        </mxCell>
        <mxCell id="yoqGeydZir3_6ihq76J6-7" value="tags: &lt;span style=&quot;white-space: pre;&quot;&gt;&#x9;&lt;/span&gt;&lt;span style=&quot;white-space: pre;&quot;&gt;&#x9;&lt;/span&gt;&lt;span style=&quot;white-space: pre;&quot;&gt;&#x9;&lt;/span&gt;list&amp;lt;FOREIGN KEY&amp;gt;" style="text;strokeColor=none;fillColor=none;align=left;verticalAlign=middle;spacingLeft=4;spacingRight=4;overflow=hidden;points=[[0,0.5],[1,0.5]];portConstraint=eastwest;rotatable=0;whiteSpace=wrap;html=1;" vertex="1" parent="kD5UxC7V2aShaHn57tZ6-2">
          <mxGeometry y="192" width="256" height="32" as="geometry" />
        </mxCell>
        <mxCell id="yoqGeydZir3_6ihq76J6-9" value="ease: &lt;span style=&quot;white-space: pre;&quot;&gt;&#x9;&lt;/span&gt;&lt;span style=&quot;white-space: pre;&quot;&gt;&#x9;&lt;/span&gt;&lt;span style=&quot;white-space: pre;&quot;&gt;&#x9;&lt;/span&gt;int (1-3)" style="text;strokeColor=none;fillColor=none;align=left;verticalAlign=middle;spacingLeft=4;spacingRight=4;overflow=hidden;points=[[0,0.5],[1,0.5]];portConstraint=eastwest;rotatable=0;whiteSpace=wrap;html=1;" vertex="1" parent="kD5UxC7V2aShaHn57tZ6-2">
          <mxGeometry y="224" width="256" height="32" as="geometry" />
        </mxCell>
        <mxCell id="yoqGeydZir3_6ihq76J6-8" value="image: &lt;span style=&quot;white-space: pre;&quot;&gt;&#x9;&lt;/span&gt;&lt;span style=&quot;white-space: pre;&quot;&gt;&#x9;&lt;/span&gt;&lt;span style=&quot;white-space: pre;&quot;&gt;&#x9;&lt;/span&gt;blob (?)" style="text;strokeColor=none;fillColor=none;align=left;verticalAlign=middle;spacingLeft=4;spacingRight=4;overflow=hidden;points=[[0,0.5],[1,0.5]];portConstraint=eastwest;rotatable=0;whiteSpace=wrap;html=1;" vertex="1" parent="kD5UxC7V2aShaHn57tZ6-2">
          <mxGeometry y="256" width="256" height="32" as="geometry" />
        </mxCell>
        <mxCell id="yoqGeydZir3_6ihq76J6-11" value="source: &lt;span style=&quot;white-space: pre;&quot;&gt;&#x9;&lt;/span&gt;&lt;span style=&quot;white-space: pre;&quot;&gt;&#x9;&lt;/span&gt;&lt;span style=&quot;white-space: pre;&quot;&gt;&#x9;&lt;/span&gt;String" style="text;strokeColor=none;fillColor=none;align=left;verticalAlign=middle;spacingLeft=4;spacingRight=4;overflow=hidden;points=[[0,0.5],[1,0.5]];portConstraint=eastwest;rotatable=0;whiteSpace=wrap;html=1;" vertex="1" parent="kD5UxC7V2aShaHn57tZ6-2">
          <mxGeometry y="288" width="256" height="32" as="geometry" />
        </mxCell>
        <mxCell id="yoqGeydZir3_6ihq76J6-12" value="personalNotes: &lt;span style=&quot;white-space: pre;&quot;&gt;&#x9;&lt;/span&gt;String" style="text;strokeColor=none;fillColor=none;align=left;verticalAlign=middle;spacingLeft=4;spacingRight=4;overflow=hidden;points=[[0,0.5],[1,0.5]];portConstraint=eastwest;rotatable=0;whiteSpace=wrap;html=1;" vertex="1" parent="kD5UxC7V2aShaHn57tZ6-2">
          <mxGeometry y="320" width="256" height="32" as="geometry" />
        </mxCell>
        <mxCell id="kD5UxC7V2aShaHn57tZ6-12" value="tags" style="swimlane;fontStyle=0;childLayout=stackLayout;horizontal=1;startSize=31;horizontalStack=0;resizeParent=1;resizeParentMax=0;resizeLast=0;collapsible=1;marginBottom=0;whiteSpace=wrap;html=1;rounded=0;swimlaneLine=1;glass=0;shadow=0;" parent="1" vertex="1">
          <mxGeometry x="769" y="289" width="160" height="95" as="geometry" />
        </mxCell>
        <mxCell id="kD5UxC7V2aShaHn57tZ6-13" value="id: &lt;span style=&quot;white-space: pre;&quot;&gt;&#x9;&lt;/span&gt;&lt;span style=&quot;white-space: pre;&quot;&gt;&#x9;&lt;/span&gt;&lt;span style=&quot;white-space: pre;&quot;&gt;&#x9;&lt;/span&gt;int" style="text;strokeColor=none;fillColor=none;align=left;verticalAlign=middle;spacingLeft=4;spacingRight=4;overflow=hidden;points=[[0,0.5],[1,0.5]];portConstraint=eastwest;rotatable=0;whiteSpace=wrap;html=1;" parent="kD5UxC7V2aShaHn57tZ6-12" vertex="1">
          <mxGeometry y="31" width="160" height="32" as="geometry" />
        </mxCell>
        <mxCell id="kD5UxC7V2aShaHn57tZ6-14" value="name: &lt;span style=&quot;white-space: pre;&quot;&gt;&#x9;&lt;/span&gt;&lt;span style=&quot;white-space: pre;&quot;&gt;&#x9;&lt;/span&gt;String" style="text;strokeColor=none;fillColor=none;align=left;verticalAlign=middle;spacingLeft=4;spacingRight=4;overflow=hidden;points=[[0,0.5],[1,0.5]];portConstraint=eastwest;rotatable=0;whiteSpace=wrap;html=1;" parent="kD5UxC7V2aShaHn57tZ6-12" vertex="1">
          <mxGeometry y="63" width="160" height="32" as="geometry" />
        </mxCell>
        <mxCell id="yoqGeydZir3_6ihq76J6-10" style="edgeStyle=orthogonalEdgeStyle;rounded=0;orthogonalLoop=1;jettySize=auto;html=1;exitX=1;exitY=0.5;exitDx=0;exitDy=0;entryX=0;entryY=0.5;entryDx=0;entryDy=0;" edge="1" parent="1" source="yoqGeydZir3_6ihq76J6-7" target="kD5UxC7V2aShaHn57tZ6-13">
          <mxGeometry relative="1" as="geometry" />
        </mxCell>
      </root>
    </mxGraphModel>
  </diagram>
</mxfile>
